<svg width="157" height="33" viewBox="0 0 157 33" fill="none" xmlns="http://www.w3.org/2000/svg">
<g clip-path="url(#clip0_14712_102)">
<path d="M16 7.5C11.0294 7.5 7 11.5294 7 16.5C7 17.612 7.20167 18.6769 7.57043 19.6601L1.55306 23.3851C0.557413 21.2997 0 18.965 0 16.5C0 7.66344 7.16344 0.5 16 0.5C23.365 0.5 29.5678 5.4763 31.4294 12.25H23.9353C22.4178 9.42263 19.4335 7.5 16 7.5Z" fill="#A67CFF"/>
<path d="M3.39789 26.3595L9.41475 22.6347C11.0577 24.3976 13.4001 25.5 16 25.5C19.1171 25.5 21.864 23.9154 23.4792 21.5078L17.5 15.75H31.9827C31.9942 15.9986 32 16.2486 32 16.5C32 25.3366 24.8366 32.5 16 32.5C10.8828 32.5 6.32671 30.0978 3.39789 26.3595Z" fill="#A67CFF"/>
</g>
<path d="M40 27.5547V6.55469H52.405V10.2147H43.66V14.4747H50.965V18.1347H43.66V27.5547H40Z" fill="#172342"/>
<path d="M53.2574 22.0047V12.5547H56.9174V21.0447C56.9174 21.6347 57.0624 22.1747 57.3524 22.6647C57.6424 23.1447 58.0274 23.5297 58.5074 23.8197C58.9974 24.0997 59.5324 24.2397 60.1124 24.2397C60.7124 24.2397 61.2524 24.0997 61.7324 23.8197C62.2124 23.5297 62.5974 23.1447 62.8874 22.6647C63.1774 22.1747 63.3224 21.6347 63.3224 21.0447V12.5547H66.9824L66.9974 27.5547H63.3374L63.3224 26.1897C62.8024 26.7297 62.1874 27.1597 61.4774 27.4797C60.7674 27.7897 60.0074 27.9447 59.1974 27.9447C58.1074 27.9447 57.1124 27.6797 56.2124 27.1497C55.3124 26.6097 54.5924 25.8947 54.0524 25.0047C53.5224 24.1047 53.2574 23.1047 53.2574 22.0047Z" fill="#172342"/>
<path d="M83.74 18.0747V27.5547H80.08V19.0347C80.08 18.4447 79.935 17.9097 79.645 17.4297C79.355 16.9397 78.965 16.5547 78.475 16.2747C77.995 15.9847 77.46 15.8397 76.87 15.8397C76.28 15.8397 75.74 15.9847 75.25 16.2747C74.77 16.5547 74.385 16.9397 74.095 17.4297C73.815 17.9097 73.675 18.4447 73.675 19.0347V27.5547H70.015L70 12.5547H73.66L73.675 13.8897C74.185 13.3497 74.795 12.9247 75.505 12.6147C76.215 12.2947 76.98 12.1347 77.8 12.1347C78.89 12.1347 79.885 12.4047 80.785 12.9447C81.685 13.4747 82.4 14.1897 82.93 15.0897C83.47 15.9797 83.74 16.9747 83.74 18.0747Z" fill="#172342"/>
<path d="M97.7755 5.05469H101.436V27.5547H97.7755V25.6797C97.2955 26.3497 96.6905 26.8947 95.9605 27.3147C95.2305 27.7347 94.3855 27.9447 93.4255 27.9447C92.3355 27.9447 91.3155 27.7397 90.3655 27.3297C89.4155 26.9197 88.5755 26.3547 87.8455 25.6347C87.1255 24.9047 86.5605 24.0647 86.1505 23.1147C85.7405 22.1647 85.5355 21.1447 85.5355 20.0547C85.5355 18.9647 85.7405 17.9447 86.1505 16.9947C86.5605 16.0447 87.1255 15.2097 87.8455 14.4897C88.5755 13.7597 89.4155 13.1897 90.3655 12.7797C91.3155 12.3697 92.3355 12.1647 93.4255 12.1647C94.3855 12.1647 95.2305 12.3747 95.9605 12.7947C96.6905 13.2047 97.2955 13.7497 97.7755 14.4297V5.05469ZM93.4705 24.4197C94.2505 24.4197 94.9405 24.2247 95.5405 23.8347C96.1405 23.4447 96.6105 22.9197 96.9505 22.2597C97.2905 21.5897 97.4605 20.8547 97.4605 20.0547C97.4605 19.2447 97.2905 18.5097 96.9505 17.8497C96.6105 17.1797 96.1355 16.6497 95.5255 16.2597C94.9255 15.8697 94.2405 15.6747 93.4705 15.6747C92.7005 15.6747 91.9955 15.8747 91.3555 16.2747C90.7255 16.6647 90.2205 17.1897 89.8405 17.8497C89.4705 18.5097 89.2855 19.2447 89.2855 20.0547C89.2855 20.8647 89.4755 21.5997 89.8555 22.2597C90.2355 22.9197 90.7405 23.4447 91.3705 23.8347C92.0105 24.2247 92.7105 24.4197 93.4705 24.4197Z" fill="#172342"/>
<path d="M105.039 27.5547V6.55469H117.444V10.2147H108.699V14.4747H116.004V18.1347H108.699V27.5547H105.039Z" fill="#172342"/>
<path d="M119.629 27.5547V5.05469H123.289V27.5547H119.629Z" fill="#172342"/>
<path d="M133.26 27.9447C131.88 27.9447 130.62 27.5897 129.48 26.8797C128.35 26.1697 127.445 25.2147 126.765 24.0147C126.095 22.8147 125.76 21.4897 125.76 20.0397C125.76 18.9497 125.955 17.9297 126.345 16.9797C126.735 16.0197 127.27 15.1797 127.95 14.4597C128.64 13.7297 129.44 13.1597 130.35 12.7497C131.26 12.3397 132.23 12.1347 133.26 12.1347C134.43 12.1347 135.5 12.3847 136.47 12.8847C137.45 13.3747 138.28 14.0497 138.96 14.9097C139.64 15.7697 140.135 16.7497 140.445 17.8497C140.755 18.9497 140.825 20.0997 140.655 21.2997H129.69C129.83 21.8597 130.06 22.3647 130.38 22.8147C130.7 23.2547 131.105 23.6097 131.595 23.8797C132.085 24.1397 132.64 24.2747 133.26 24.2847C133.9 24.2947 134.48 24.1447 135 23.8347C135.53 23.5147 135.97 23.0847 136.32 22.5447L140.055 23.4147C139.445 24.7447 138.535 25.8347 137.325 26.6847C136.115 27.5247 134.76 27.9447 133.26 27.9447ZM129.57 18.5547H136.95C136.84 17.9547 136.605 17.4147 136.245 16.9347C135.895 16.4447 135.46 16.0547 134.94 15.7647C134.42 15.4747 133.86 15.3297 133.26 15.3297C132.66 15.3297 132.105 15.4747 131.595 15.7647C131.085 16.0447 130.65 16.4297 130.29 16.9197C129.94 17.3997 129.7 17.9447 129.57 18.5547Z" fill="#172342"/>
<path d="M141.265 27.5547L146.755 20.0247L141.31 12.5397H145.825L149.005 16.9047L152.2 12.5397H156.715L151.27 20.0247L156.76 27.5547H152.245L149.005 23.1147L145.78 27.5547H141.265Z" fill="#172342"/>
<defs>
<clipPath id="clip0_14712_102">
<rect width="32" height="32" fill="white" transform="translate(0 0.5)"/>
</clipPath>
</defs>
</svg>
